<svg width="15" height="19" viewBox="0 0 15 19" fill="none" xmlns="http://www.w3.org/2000/svg">
<path d="M0.9375 1.02344C1.52344 0.671875 2.26562 0.671875 2.85156 1.0625L14.1016 7.89844C14.6484 8.25 15 8.875 15 9.5C15 10.1641 14.6484 10.7891 14.1016 11.1016L2.85156 17.9766C2.26562 18.3281 1.52344 18.3672 0.9375 18.0156C0.351562 17.7031 0 17.0781 0 16.375V2.625C0 1.96094 0.351562 1.33594 0.9375 1.02344ZM2.5 1.57031C2.10938 1.33594 1.64062 1.33594 1.25 1.57031C0.859375 1.76562 0.625 2.19531 0.625 2.625V16.375C0.625 16.8438 0.859375 17.2734 1.25 17.4688C1.64062 17.7031 2.10938 17.7031 2.5 17.4688L13.75 10.5938C14.1406 10.3594 14.375 9.96875 14.375 9.5C14.375 9.07031 14.1406 8.67969 13.75 8.44531L2.5 1.57031Z" fill="white"/>
</svg>
