<svg width="131" height="131" viewBox="0 0 131 131" fill="none" xmlns="http://www.w3.org/2000/svg">
<path d="M65.4946 0C49.5621 0 33.9786 5.93356 22.0658 16.5059C10.2919 26.9506 2.51891 41.5274 0.522181 57.1476C-1.51583 73.1018 2.45886 89.4988 11.6205 102.721C20.5195 115.564 33.9636 125.01 49.0967 128.925C54.4488 130.306 59.9736 131 65.4984 131H131V65.4944C130.992 29.3826 101.612 0 65.4984 0L65.4946 0ZM91.5008 106.74C79.8057 113.732 65.5659 116.059 52.4521 112.355C41.2899 109.206 31.4677 101.985 25.0722 92.3211C18.4702 82.3531 15.7791 70.0919 17.5582 58.2735C19.2997 46.7292 25.3011 36.048 34.1888 28.4894C43.2529 20.7806 55.0118 16.4383 66.9021 16.93C90.814 17.9208 104.232 32.5914 112.147 48.7896C94.0155 59.2643 54.3099 82.2367 54.3099 82.2367L45.5236 67.0481L87.0457 43.0362C81.9939 38.206 75.3994 35.1923 68.4371 34.5843C56.3967 33.5259 44.589 39.7147 38.6139 50.2232C32.6537 60.6905 33.4081 74.0401 40.4867 83.7867C47.5654 93.5221 59.891 98.356 71.7062 96.0554C83.6491 93.7248 93.5238 84.1733 96.2149 71.3379H113.975C113.975 76.6484 108.214 96.7535 91.5008 106.748V106.74Z" fill="white"/>
</svg>
