<svg width="617" height="617" viewBox="0 0 617 617" fill="none" xmlns="http://www.w3.org/2000/svg">
<path d="M308.475 0C233.434 0 160.037 27.9466 103.928 77.7415C48.474 126.935 11.8639 195.591 2.45943 269.161C-7.13945 344.304 11.581 421.533 54.7318 483.807C96.6451 544.296 159.966 588.788 231.242 607.225C256.45 613.73 282.471 617 308.492 617H617V308.473C616.965 138.39 478.585 0 308.492 0L308.475 0ZM430.962 502.739C375.879 535.67 308.81 546.63 247.045 529.183C194.472 514.352 148.21 480.343 118.088 434.826C86.9932 387.877 74.3185 330.127 82.6976 274.464C90.9 220.091 119.166 169.783 161.027 134.183C203.718 97.8751 259.101 77.4233 315.104 79.7389C427.727 84.4055 490.924 153.503 528.206 229.795C442.806 279.13 255.796 387.329 255.796 387.329L214.413 315.792L409.979 202.697C386.185 179.947 355.126 165.753 322.334 162.889C265.624 157.905 210.011 187.053 181.868 236.548C153.797 285.848 157.35 348.723 190.689 394.629C224.029 440.482 282.082 463.249 337.731 452.414C393.981 441.437 440.49 396.45 453.165 335.996H536.815C536.815 361.008 509.68 455.701 430.962 502.774V502.739Z" fill="url(#paint0_linear_208_1323)" fill-opacity="0.4"/>
<defs>
<linearGradient id="paint0_linear_208_1323" x1="39" y1="135" x2="537.5" y2="511.5" gradientUnits="userSpaceOnUse">
<stop stop-color="white" stop-opacity="0"/>
<stop offset="1" stop-color="#DADADA"/>
</linearGradient>
</defs>
</svg>
