<svg width="567" height="158" viewBox="0 0 567 158" fill="none" xmlns="http://www.w3.org/2000/svg">
<path d="M90.5162 109.186C87.4405 123.809 76.1549 134.694 62.5008 137.348C48.9978 139.97 34.9067 134.464 26.816 123.374C18.7253 112.275 17.859 97.0654 24.6702 85.1352C31.5051 73.1654 45.0002 66.115 58.7575 67.3191C66.7131 68.0163 74.2554 71.4543 80.0253 76.952L32.5621 104.306L42.6079 121.615C42.6079 121.615 87.9968 95.4415 108.716 83.5033C99.6639 65.0456 84.333 48.3306 56.9931 47.2057C43.4027 46.6433 29.9633 51.5944 19.5996 60.3797C9.46636 68.9748 2.60756 81.1427 0.612706 94.3007C-1.42189 107.768 1.65384 121.742 9.19614 133.094C16.5079 144.105 27.7379 152.336 40.4939 155.924C55.4831 160.147 71.7598 157.493 85.1277 149.523C104.234 138.14 110.814 115.23 110.814 109.186H90.5162Z" fill="#1D1D1B"/>
<path d="M363.231 109.186C360.155 123.809 348.87 134.694 335.216 137.348C321.713 139.97 307.621 134.464 299.531 123.374C291.44 112.275 290.574 97.0654 297.393 85.1352C304.228 73.1654 317.723 66.115 331.48 67.3191C339.436 68.0163 346.978 71.4543 352.748 76.952L305.285 104.306L315.331 121.615C315.331 121.615 360.711 95.4415 381.439 83.5033C372.387 65.0456 357.056 48.3306 329.724 47.2057C316.133 46.6433 302.694 51.5944 292.33 60.3797C282.173 68.9906 275.314 81.1585 273.319 94.3087C271.285 107.776 274.361 121.75 281.911 133.102C289.223 144.113 300.445 152.344 313.209 155.932C328.198 160.155 344.475 157.501 357.842 149.531C376.948 138.148 383.529 115.238 383.529 109.194H363.231V109.186Z" fill="#1D1D1B"/>
<path d="M253.601 0C241.418 0 224.291 14.1721 224.291 32.2813V158H244.247V67.1847H270.927V47.1901H244.247V31.6C244.732 25.0328 250.287 19.7965 256.971 19.7965H278.549V0H253.601Z" fill="#1D1D1B"/>
<path d="M416.385 59.9757V47.1741H396.404V157.984H416.385V100.298C416.385 83.7252 434.688 67.1607 453.222 67.1607V47.1741C436.182 47.1741 425.365 52.7985 416.385 59.9757Z" fill="#1D1D1B"/>
<path d="M511.414 47.1899C497.895 47.1899 484.671 52.2123 474.561 61.1481C464.571 69.9809 457.975 82.3151 456.282 95.5287C454.549 109.019 457.927 122.891 465.7 134.076C473.25 144.937 484.663 152.93 497.498 156.241C502.036 157.406 506.725 158 511.414 158H567V102.595C567 72.0485 542.06 47.1979 511.414 47.1979V47.1899ZM475.889 102.595C475.889 89.0566 483.931 76.4213 496.187 70.5988C508.625 64.6971 523.749 66.6696 534.28 75.5024C542.235 82.1884 546.948 92.2015 546.948 102.587V138.005H511.414C491.831 138.005 475.889 122.114 475.889 102.595C475.889 122.114 475.889 83.0756 475.889 102.595Z" fill="#1D1D1B"/>
<path d="M195.616 103.854C180.221 97.723 156.966 88.5813 142.565 83.036C139.243 81.7527 136.597 78.9801 136.597 75.2568C136.597 70.7969 140.221 67.1845 144.695 67.1845H207.132V47.1899H144.695C130.572 47.1899 119.446 60.554 119.446 75.344C119.446 87.3851 126.813 97.6755 137.185 101.684C149.233 106.334 173.283 115.618 185.355 120.363C188.709 121.686 191.038 125.053 191.038 128.864C191.038 133.918 186.929 138.005 181.866 138.005H119.43V157.992H185.029C200.185 157.992 212.472 145.388 212.472 129.838C212.472 118.137 205.63 107.839 195.616 103.854Z" fill="#1D1D1B"/>
</svg>
